<svg id="Layer_1" data-name="Layer 1" xmlns="http://www.w3.org/2000/svg" viewBox="0 0 56 45"><path d="M47.41,3.73A44.42,44.42,0,0,0,36,0a.14.14,0,0,0-.11,0,.2.2,0,0,0-.08.08c-.49.92-1,2.12-1.41,3.07a40.47,40.47,0,0,0-12.81,0A28.6,28.6,0,0,0,20.16.1.16.16,0,0,0,20.08,0,.18.18,0,0,0,20,0,44.44,44.44,0,0,0,8.58,3.73a.12.12,0,0,0-.07.07A51.82,51.82,0,0,0,.23,37.4a.11.11,0,0,0,0,.08.21.21,0,0,0,0,.06,45.62,45.62,0,0,0,14,7.45h.11a.13.13,0,0,0,.08-.07A34.09,34.09,0,0,0,17.34,40a.12.12,0,0,0,0-.08.25.25,0,0,0,0-.08l0-.06-.06,0a29.3,29.3,0,0,1-4.37-2.2.12.12,0,0,1-.06-.06.16.16,0,0,1,0-.09.29.29,0,0,1,0-.09.18.18,0,0,1,0-.07q.45-.34.87-.72l.09,0a.15.15,0,0,1,.09,0,31.58,31.58,0,0,0,28.14,0,.17.17,0,0,1,.19,0q.42.38.87.72a.18.18,0,0,1,0,.07.29.29,0,0,1,0,.09.16.16,0,0,1,0,.09.12.12,0,0,1-.06.06,27,27,0,0,1-4.37,2.19l-.06,0,0,.06a.22.22,0,0,0,0,.08.12.12,0,0,0,0,.08,40.93,40.93,0,0,0,2.85,4.9.28.28,0,0,0,.09.07h.11a45.35,45.35,0,0,0,14-7.45.34.34,0,0,0,.06-.06.19.19,0,0,0,0-.08A51.55,51.55,0,0,0,47.48,3.8.23.23,0,0,0,47.41,3.73Zm-28.7,27c-2.75,0-5-2.68-5-5.95s2.23-5.95,5-5.95,5.08,2.69,5,5.95S21.52,30.7,18.71,30.7Zm18.61,0c-2.76,0-5-2.68-5-5.95s2.23-5.95,5-5.95,5.08,2.69,5,5.95S40.15,30.7,37.32,30.7Z" transform="translate(0 0)" fill="#fff"/></svg>