<svg width="34" height="14" viewBox="0 0 34 14" fill="none" xmlns="http://www.w3.org/2000/svg">
<rect width="8.46939" height="1.38371" transform="matrix(1 0 0 -1 0 14)" fill="white"/>
<rect width="7.86443" height="1.38371" transform="matrix(1 0 0 -1 8.46484 12.6221)" fill="white"/>
<rect width="7.86443" height="1.38371" transform="matrix(1 0 0 -1 8.46484 6.38574)" fill="white"/>
<rect width="8.46939" height="1.38371" transform="matrix(1 0 0 -1 16.3281 3.62256)" fill="white"/>
<rect width="8.46939" height="1.38371" transform="matrix(1 0 0 -1 0 9.15674)" fill="white"/>
<rect width="8.46939" height="1.38371" transform="matrix(1 0 0 -1 16.3281 9.15674)" fill="white"/>
<rect width="8.46939" height="1.38371" transform="matrix(1 0 0 -1 24.8047 14)" fill="white"/>
<rect width="8.46939" height="1.38371" transform="matrix(1 0 0 -1 24.8047 10.5459)" fill="white"/>
<rect width="8.46939" height="1.38371" transform="matrix(1 0 0 -1 24.8047 6.38574)" fill="white"/>
<rect width="8.46939" height="1.38371" transform="matrix(1 0 0 -1 24.8047 2.2373)" fill="white"/>
<rect width="8.46939" height="1.38371" transform="matrix(1 0 0 -1 0 5.00781)" fill="white"/>
<rect width="8.46939" height="1.38371" transform="matrix(1 0 0 -1 0 2.2373)" fill="white"/>
</svg>
