<svg width="331" height="100" viewBox="0 0 331 100" fill="none" xmlns="http://www.w3.org/2000/svg">
<path d="M93.6461 57.9751L93.6461 5.55385C93.6461 2.186 91.889 0.42887 88.5211 0.42887H77.3926C74.0248 0.42887 72.2676 2.186 72.2676 5.55385L72.2676 66.3215C72.2676 67.3465 71.8283 67.7858 70.8033 67.7858H68.8998C68.1676 67.7858 67.5819 67.493 67.1426 66.9072L62.3105 61.1965C60.4069 59.0001 58.3569 57.9751 56.1605 57.9751L25.557 57.9751C23.0678 57.9751 21.8963 56.8037 21.8963 54.3144L21.8963 5.55385C21.8963 2.186 20.1392 0.42887 16.7714 0.42887H5.64281C2.27497 0.42887 0.517829 2.186 0.517829 5.55385L0.517829 59.0001C0.517829 61.7823 1.24997 64.1251 2.71425 65.7358L10.4749 74.2286C12.3785 76.4251 14.5749 77.5965 16.9178 77.5965L72.2676 77.5965V94.875C72.2676 98.2429 74.0248 100 77.3926 100H88.5211C91.889 100 93.6461 98.2429 93.6461 94.875V77.5965H105.214C108.582 77.5965 110.339 75.8394 110.339 72.4715V63.1001C110.339 59.7323 108.582 57.9751 105.214 57.9751H93.6461ZM191.365 100C193.122 100 195.172 98.6821 197.515 96.1929L209.669 83.0143C211.279 81.2572 212.158 79.2072 212.158 76.7179L212.158 23.7109C212.158 21.2217 211.279 19.1717 209.669 17.4145L197.515 4.236C195.172 1.74672 193.122 0.42887 191.365 0.42887L136.308 0.42887C134.551 0.42887 132.501 1.74672 130.158 4.236L118.005 17.4145C116.394 19.1717 115.515 21.2217 115.515 23.7109V76.7179C115.515 79.2072 116.394 81.2572 118.005 83.0143L130.158 96.1929C132.501 98.6821 134.551 100 136.308 100H191.365ZM140.555 80.5251C138.065 80.5251 136.894 79.3536 136.894 76.8644L136.894 23.5645C136.894 21.0752 138.065 19.9038 140.555 19.9038L187.119 19.9038C189.608 19.9038 190.779 21.0752 190.779 23.5645L190.779 76.8644C190.779 79.3536 189.608 80.5251 187.119 80.5251H140.555ZM313.346 57.9751V5.55385C313.346 2.186 311.588 0.42887 308.221 0.42887H297.092C293.724 0.42887 291.967 2.186 291.967 5.55385V66.3215C291.967 67.3465 291.528 67.7858 290.503 67.7858H288.599C287.867 67.7858 287.281 67.493 286.842 66.9072L282.01 61.1965C280.106 59.0001 278.056 57.9751 275.86 57.9751H245.256C242.767 57.9751 241.596 56.8037 241.596 54.3144V5.55385C241.596 2.186 239.839 0.42887 236.471 0.42887H225.342C221.974 0.42887 220.217 2.186 220.217 5.55385V59.0001C220.217 61.7823 220.949 64.1251 222.414 65.7358L230.174 74.2286C232.078 76.4251 234.274 77.5965 236.617 77.5965H291.967V94.875C291.967 98.2429 293.724 100 297.092 100L308.221 100C311.588 100 313.346 98.2429 313.346 94.875V77.5965H324.913C328.281 77.5965 330.038 75.8394 330.038 72.4715V63.1001C330.038 59.7323 328.281 57.9751 324.913 57.9751H313.346Z" fill="black"/>
</svg>
