<svg width="24" height="20" viewBox="0 0 24 20" fill="none" xmlns="http://www.w3.org/2000/svg">
<path d="M19.9823 2.55834C18.4775 1.83451 16.8646 1.2995 15.1779 0.995282C15.1628 0.992206 15.1473 0.994189 15.1334 1.00095C15.1195 1.00772 15.1079 1.01894 15.1002 1.03305C14.8936 1.42014 14.6635 1.92472 14.5022 2.32335C12.7133 2.03827 10.8946 2.03827 9.10573 2.32335C8.92608 1.88157 8.72349 1.4508 8.49891 1.03305C8.4913 1.01876 8.47978 1.00729 8.4659 1.00017C8.45202 0.993048 8.43643 0.990611 8.42121 0.993184C6.73549 1.2974 5.12255 1.83241 3.61681 2.55729C3.60385 2.56308 3.59287 2.57297 3.58534 2.58561C0.524679 7.38492 -0.314248 12.0657 0.0978394 16.6877C0.098986 16.699 0.10228 16.71 0.107522 16.7199C0.112763 16.7298 0.119842 16.7385 0.128328 16.7454C1.91475 18.1327 3.90727 19.1895 6.02245 19.8715C6.0372 19.8764 6.05297 19.8764 6.06771 19.8715C6.08244 19.8666 6.09546 19.8571 6.10507 19.8443C6.56023 19.195 6.96356 18.5061 7.31084 17.785C7.31566 17.7751 7.31844 17.7643 7.31899 17.7532C7.31953 17.7421 7.31784 17.731 7.31401 17.7206C7.31019 17.7103 7.30433 17.701 7.29682 17.6932C7.28932 17.6855 7.28035 17.6796 7.27052 17.6759C6.63518 17.4207 6.01959 17.1127 5.4294 16.7549C5.4188 16.7484 5.40986 16.7392 5.40339 16.7282C5.39693 16.7171 5.39314 16.7046 5.39236 16.6916C5.39158 16.6786 5.39383 16.6656 5.39893 16.6537C5.40402 16.6419 5.41179 16.6316 5.42153 16.6237C5.54545 16.5262 5.66938 16.4244 5.7874 16.3227C5.79802 16.3135 5.81082 16.3077 5.82436 16.3058C5.8379 16.304 5.85167 16.3062 5.86411 16.3122C9.72632 18.1627 13.9092 18.1627 17.7261 16.3122C17.7386 16.3058 17.7525 16.3033 17.7662 16.305C17.78 16.3067 17.793 16.3124 17.8038 16.3216C17.9218 16.4244 18.0448 16.5262 18.1697 16.6237C18.1795 16.6314 18.1874 16.6416 18.1927 16.6533C18.1979 16.6651 18.2004 16.678 18.1998 16.691C18.1992 16.704 18.1956 16.7166 18.1893 16.7278C18.183 16.7389 18.1743 16.7482 18.1638 16.7549C17.5756 17.1157 16.9639 17.421 16.3217 17.6749C16.3118 17.6787 16.3028 17.6847 16.2953 17.6925C16.2878 17.7003 16.282 17.7098 16.2781 17.7202C16.2743 17.7306 16.2726 17.7418 16.2732 17.753C16.2737 17.7641 16.2765 17.7751 16.2814 17.785C16.6354 18.5057 17.0406 19.1918 17.4861 19.8432C17.4954 19.8566 17.5083 19.8666 17.5231 19.8718C17.5379 19.8771 17.5538 19.8773 17.5688 19.8726C19.6876 19.1924 21.6833 18.1351 23.4717 16.7454C23.4805 16.7389 23.4878 16.7305 23.4932 16.7207C23.4986 16.711 23.502 16.7001 23.5032 16.6888C23.995 11.345 22.679 6.702 20.0128 2.58771C20.0062 2.57434 19.9954 2.56392 19.9823 2.55834ZM7.88816 13.8732C6.72566 13.8732 5.76674 12.7518 5.76674 11.3765C5.76674 10.0002 6.70697 8.87979 7.88816 8.87979C9.07819 8.87979 10.0283 10.0096 10.0096 11.3765C10.0096 12.7528 9.06934 13.8732 7.88816 13.8732ZM15.7316 13.8732C14.5681 13.8732 13.6102 12.7518 13.6102 11.3765C13.6102 10.0002 14.5494 8.87979 15.7316 8.87979C16.9216 8.87979 17.8717 10.0096 17.853 11.3765C17.853 12.7528 16.9226 13.8732 15.7316 13.8732Z" fill="white"/>
</svg>
