<svg width="1420" height="343" viewBox="0 0 1420 343" fill="none" xmlns="http://www.w3.org/2000/svg">
<path d="M18.3151 0.321334C6.72454 0.321334 0.677265 6.36859 0.677265 17.9592V53.2349C0.677265 64.8255 6.72454 70.8728 18.3151 70.8728H129.686V325.362C129.686 336.953 135.733 343 147.324 343H189.654C201.245 343 207.292 336.953 207.292 325.362V124.794C207.292 116.227 203.765 109.172 196.206 103.629L175.04 88.0067C173.024 86.4949 172.017 84.4792 172.017 81.9595V75.9122C172.017 72.3846 173.528 70.8728 177.056 70.8728H313.12C324.71 70.8728 330.757 64.8255 330.757 53.2349V17.9592C330.757 6.36859 324.71 0.321334 313.12 0.321334H18.3151ZM620.582 343C632.172 343 638.219 336.953 638.219 325.362V289.582C638.219 277.992 632.172 271.945 620.582 271.945H415.982V210.464C415.982 206.936 417.494 205.425 421.022 205.425H598.912C610.503 205.425 616.55 199.377 616.55 187.787V155.535C616.55 143.944 610.503 137.897 598.912 137.897H476.959C467.384 137.897 459.825 141.424 453.778 148.983L434.628 173.172C433.116 175.188 431.1 176.196 428.077 176.196H421.022C417.494 176.196 415.982 174.684 415.982 171.157V71.3767H620.582C632.172 71.3767 638.219 65.3295 638.219 53.7389V17.9592C638.219 6.36859 632.172 0.321334 620.582 0.321334H389.273C383.226 0.321334 376.171 4.85679 368.108 13.4237L346.943 36.6049C341.399 42.6522 338.376 49.7074 338.376 58.2743V285.047C338.376 293.614 341.399 300.669 346.943 306.716L368.108 329.898C376.171 338.465 383.226 343 389.273 343H620.582ZM896.158 13.9277C892.63 4.85679 886.079 0.321334 876 0.321334H780.252C770.173 0.321334 763.622 4.85679 760.094 13.9277L640.66 322.338C636.125 334.433 642.172 343 654.771 343H697.605C708.188 343 714.739 338.465 718.267 329.394L734.393 286.559H921.858L937.985 329.394C941.512 338.465 948.063 343 958.646 343H1001.48C1014.08 343 1020.13 334.433 1015.59 322.338L896.158 13.9277ZM808.976 219.031C797.889 219.031 788.315 224.574 779.748 235.157L766.141 252.795C764.125 255.819 761.102 257.33 757.07 257.33H753.039C748.503 257.33 746.992 254.811 747.999 250.275L815.023 73.3925H841.228L896.158 219.031H808.976ZM1076.22 343C1087.81 343 1093.86 336.953 1093.86 325.362V80.9516C1093.86 74.4004 1097.39 70.8728 1103.94 70.8728H1168.95C1175.5 70.8728 1179.02 74.4004 1179.02 80.9516V325.362C1179.02 336.953 1185.07 343 1196.66 343H1238.99C1250.58 343 1256.63 336.953 1256.63 325.362V80.9516C1256.63 74.4004 1260.16 70.8728 1266.71 70.8728H1331.72C1338.27 70.8728 1341.8 74.4004 1341.8 80.9516V325.362C1341.8 336.953 1347.84 343 1359.44 343H1401.77C1413.36 343 1419.4 336.953 1419.4 325.362V58.2743C1419.4 49.7074 1416.38 42.6522 1410.84 36.6049L1389.67 13.4237C1381.61 4.85679 1374.55 0.321334 1368.51 0.321334H1312.06C1304.51 0.321334 1297.45 3.84889 1290.9 11.408L1271.75 33.5813H1256.63L1237.48 11.408C1230.93 3.84889 1223.88 0.321334 1216.32 0.321334H1149.29C1141.73 0.321334 1134.68 3.84889 1128.13 11.408L1108.98 33.5813H1098.9C1095.37 33.5813 1093.86 32.0695 1093.86 28.5419V17.9592C1093.86 6.36859 1087.81 0.321334 1076.22 0.321334H1033.89C1022.3 0.321334 1016.25 6.36859 1016.25 17.9592V325.362C1016.25 336.953 1022.3 343 1033.89 343H1076.22Z" fill="black"/>
</svg>
