<svg width="1408" height="199" viewBox="0 0 1408 199" fill="none" xmlns="http://www.w3.org/2000/svg">
<path d="M146.181 199C149.68 199 153.763 196.375 158.428 191.418L170.676 178.004C173.884 174.504 175.634 170.422 175.634 165.464V10.9082C175.634 4.20105 172.134 0.70168 165.427 0.70168H140.932C134.224 0.70168 130.725 4.20105 130.725 10.9082V158.174H10.8711C4.16399 158.174 0.664608 161.673 0.664608 168.38V188.793C0.664608 195.501 4.16399 199 10.8711 199H146.181ZM345.96 199C351.5 199 355.291 196.667 357.916 192.293L406.616 106.558C409.24 102.184 409.24 97.5179 406.616 92.8521L357.916 7.40883C355.291 3.03459 351.5 0.70168 345.96 0.70168H244.769C239.229 0.70168 235.438 3.03459 232.813 7.40883L184.113 92.8521C181.489 97.5179 181.489 102.184 184.113 106.558L232.813 192.293C235.438 196.667 239.229 199 244.769 199H345.96ZM229.605 99.8508L262.849 41.5278H327.88L361.124 99.8508L327.88 158.174H262.849L229.605 99.8508ZM577.931 199C581.43 199 585.513 196.375 590.178 191.418L602.426 178.004C605.634 174.504 607.384 170.422 607.384 165.464V10.9082C607.384 4.20105 603.884 0.70168 597.177 0.70168H572.681C565.974 0.70168 562.475 4.20105 562.475 10.9082V158.174H458.368V10.9082C458.368 4.20105 454.869 0.70168 448.162 0.70168H423.666C416.959 0.70168 413.46 4.20105 413.46 10.9082V165.464C413.46 170.422 415.209 174.504 418.417 178.004L430.665 191.418C435.331 196.375 439.413 199 442.913 199H577.931ZM777.081 7.70044C774.456 3.03459 770.374 0.70168 765.125 0.70168H647.021C643.521 0.70168 639.439 3.32622 634.773 8.28366L622.525 21.698C619.317 25.1974 617.567 29.28 617.567 34.2374V188.793C617.567 195.501 621.067 199 627.774 199H652.27C658.977 199 662.476 195.501 662.476 188.793V133.095C662.476 131.054 663.351 130.179 665.392 130.179H727.215L759.292 192.293C761.625 196.667 766 199 772.415 199H794.286C802.451 199 805.951 194.043 802.451 186.752L772.998 130.179L806.534 72.1474C809.159 67.7732 809.159 63.1073 806.534 58.4415L777.081 7.70044ZM695.72 89.3527C690.763 89.3527 686.68 91.394 683.472 95.7682L673.266 108.599C672.391 109.766 671.225 110.349 669.475 110.349H665.392C663.351 110.349 662.476 109.474 662.476 107.433V41.5278H748.503L761.625 65.4402L748.503 89.3527H695.72ZM847.618 199C854.325 199 857.824 195.501 857.824 188.793V77.9797C857.824 71.5642 856.658 66.3151 854.616 61.9409L846.743 46.7769C845.285 44.1523 846.16 41.5278 848.492 41.5278H852.283C854.033 41.5278 855.2 42.111 855.783 43.5691L934.519 191.71C936.852 196.667 940.934 199 946.475 199H995.175C1001.88 199 1005.38 195.501 1005.38 188.793V10.9082C1005.38 4.20105 1001.88 0.70168 995.175 0.70168H970.679C963.972 0.70168 960.473 4.20105 960.473 10.9082V121.722C960.473 128.138 961.639 133.387 963.68 137.761L971.554 152.925C973.012 155.549 972.137 158.174 969.804 158.174H966.013C964.264 158.174 963.097 157.591 962.514 156.133L883.778 7.99205C881.445 3.03459 877.362 0.70168 871.822 0.70168H823.122C816.415 0.70168 812.915 4.20105 812.915 10.9082V188.793C812.915 195.501 816.415 199 823.122 199H847.618ZM1160.53 8.57528C1158.49 3.32622 1154.7 0.70168 1148.87 0.70168H1093.46C1087.63 0.70168 1083.84 3.32622 1081.8 8.57528L1012.68 187.044C1010.06 194.043 1013.56 199 1020.85 199H1045.64C1051.76 199 1055.55 196.375 1057.59 191.126L1066.92 166.339H1175.4L1184.74 191.126C1186.78 196.375 1190.57 199 1196.69 199H1221.48C1228.77 199 1232.27 194.043 1229.64 187.044L1160.53 8.57528ZM1110.08 127.263C1103.67 127.263 1098.13 130.47 1093.17 136.594L1085.3 146.801C1084.13 148.551 1082.38 149.425 1080.05 149.425H1077.71C1075.09 149.425 1074.21 147.967 1074.8 145.343L1113.58 42.9859H1128.75L1160.53 127.263H1110.08ZM1397.71 199C1404.41 199 1407.91 195.501 1407.91 188.793V168.38C1407.91 161.673 1404.41 158.174 1397.71 158.174H1277.85V10.9082C1277.85 4.20105 1274.35 0.70168 1267.65 0.70168H1243.15C1236.44 0.70168 1232.94 4.20105 1232.94 10.9082V165.464C1232.94 170.422 1234.69 174.504 1237.9 178.004L1250.15 191.418C1254.81 196.375 1258.9 199 1262.4 199H1397.71Z" fill="black"/>
</svg>
