<svg width="534" height="544" viewBox="0 0 534 544" fill="none" xmlns="http://www.w3.org/2000/svg">
<path d="M336.8 269.6L513.6 30.4C525.6 15.2 520.8 -5.72205e-06 502.4 -5.72205e-06H420.8C406.4 -5.72205e-06 395.2 5.59997 387.2 16.8L120.8 385.6C118.4 388.8 115.2 390.4 110.4 390.4H98.4C92 390.4 90.4 384.8 93.6 380.8L114.4 350.4C120 341.6 123.2 330.4 123.2 315.2V28C123.2 9.59997 113.6 -5.72205e-06 95.2 -5.72205e-06H28C9.60001 -5.72205e-06 4.05312e-06 9.59997 4.05312e-06 28V516C4.05312e-06 534.4 9.60001 544 28 544H112.8C126.4 544 138.4 537.6 148.8 524L268 362.4L391.2 527.2C399.2 538.4 410.4 544 424.8 544H510.4C528.8 544 533.6 528.8 521.6 513.6L336.8 269.6Z" fill="black"/>
</svg>
