<svg viewBox="0 0 54 102" fill="none" xmlns="http://www.w3.org/2000/svg">
<path fill-rule="evenodd" clip-rule="evenodd" d="M17.9582 70.1763C17.9582 71.0493 18.666 71.7571 19.539 71.7571H22.338C23.211 71.7571 23.9188 72.4648 23.9188 73.3379V100.099C23.9188 100.972 24.6265 101.679 25.4996 101.679H28.2985C29.1715 101.679 29.8793 100.972 29.8793 100.099V73.3379C29.8793 72.4648 30.587 71.7571 31.4601 71.7571H34.259C35.1321 71.7571 35.8398 71.0493 35.8398 70.1763V55.4008C35.8398 54.5277 36.5476 53.82 37.4206 53.82H52.2511C53.1242 53.82 53.8319 53.1122 53.8319 52.2392V49.4402C53.8319 48.5672 53.1242 47.8594 52.2511 47.8594H37.4206C36.5476 47.8594 35.8398 47.1517 35.8398 46.2786V31.5031C35.8398 30.6301 35.1321 29.9223 34.259 29.9223H31.4601C30.587 29.9223 29.8793 29.2146 29.8793 28.3415V1.5808C29.8793 0.707749 29.1716 0 28.2985 0H25.4996C24.6265 0 23.9188 0.707748 23.9188 1.5808V28.3415C23.9188 29.2146 23.211 29.9223 22.338 29.9223H19.539C18.666 29.9223 17.9582 30.6301 17.9582 31.5031V46.2786C17.9582 47.1517 17.2505 47.8594 16.3774 47.8594H1.5808C0.707749 47.8594 0 48.5672 0 49.4402V52.2392C0 53.1122 0.707747 53.82 1.5808 53.82H16.3774C17.2505 53.82 17.9582 54.5277 17.9582 55.4008V70.1763ZM25.4953 29.8896C24.6223 29.8896 23.9145 30.5974 23.9145 31.4704V46.2744C23.9145 47.1474 23.2068 47.8552 22.3337 47.8552H19.5347C18.6617 47.8552 17.9539 48.5629 17.9539 49.436V52.2499C17.9539 53.1229 18.6617 53.8307 19.5347 53.8307H22.3337C23.2068 53.8307 23.9145 54.5385 23.9145 55.4115V70.2006C23.9145 71.0737 24.6223 71.7814 25.4953 71.7814H28.2943C29.1674 71.7814 29.8751 71.0737 29.8751 70.2006V55.3966C29.8751 54.5236 30.5829 53.8158 31.456 53.8158H34.2549C35.128 53.8158 35.8358 53.108 35.8358 52.235V49.4472C35.8358 48.5741 35.128 47.8664 34.2549 47.8664H31.456C30.5829 47.8664 29.8751 47.1586 29.8751 46.2855V31.4704C29.8751 30.5974 29.1674 29.8896 28.2943 29.8896H25.4953Z" fill="white" />
</svg>
