<svg width="526" height="544" viewBox="0 0 526 544" fill="none" xmlns="http://www.w3.org/2000/svg">
<path d="M437.6 19.2C430.4 6.39996 419.2 -5.72205e-06 404.8 -5.72205e-06H80.8C71.2 -5.72205e-06 60 7.2 47.2 20.8L13.6 57.6C4.8 67.2 4.05312e-06 78.4 4.05312e-06 92V516C4.05312e-06 534.4 9.60001 544 28 544H95.2C113.6 544 123.2 534.4 123.2 516V363.2C123.2 357.6 125.6 355.2 131.2 355.2H300.8L388.8 525.6C395.2 537.6 407.2 544 424.8 544H484.8C507.2 544 516.8 530.4 507.2 510.4L426.4 355.2L518.4 196C525.6 184 525.6 171.2 518.4 158.4L437.6 19.2ZM214.4 243.2C200.8 243.2 189.6 248.8 180.8 260.8L152.8 296C150.4 299.2 147.2 300.8 142.4 300.8H131.2C125.6 300.8 123.2 298.4 123.2 292.8V112H359.2L395.2 177.6L359.2 243.2H214.4Z" fill="black"/>
</svg>
