<svg viewBox="0 0 691 783" fill="none" xmlns="http://www.w3.org/2000/svg" preserveAspectRatio="none">
<path fill-rule="evenodd" clip-rule="evenodd" d="M691 0H0V11C0 5.47717 4.47717 1 10 1H629.797C632.876 1 635.783 2.41833 637.678 4.84497L684.881 65.2871C686.254 67.0451 687 69.2116 687 71.4421V300.19C687 302.028 686.494 303.83 685.537 305.398L671.991 327.601C671.034 329.17 670.528 330.972 670.528 332.81V644.412C670.528 646.732 671.334 648.979 672.809 650.77L684.719 665.23C686.194 667.021 687 669.268 687 671.588V772C687 777.523 682.523 782 677 782H10C4.47717 782 0 777.523 0 772V783H691V0Z" fill="#FFFFFF"/>
</svg>
