<svg viewBox="0 0 13 11" fill="none" xmlns="http://www.w3.org/2000/svg">
<path d="M12.3973 1.86908C11.9719 2.06814 11.5185 2.20009 11.0459 2.26415C11.5321 1.9545 11.9032 1.46791 12.0777 0.881407C11.6244 1.1697 11.1239 1.37334 10.5905 1.48698C10.16 0.998098 9.54653 0.695312 8.87727 0.695312C7.5788 0.695312 6.53345 1.81951 6.53345 3.19768C6.53345 3.39598 6.54918 3.58665 6.58779 3.76817C4.63794 3.66673 2.9126 2.6699 1.75356 1.1514C1.55121 1.52588 1.43252 1.9545 1.43252 2.41593C1.43252 3.28234 1.8508 4.05036 2.4743 4.49501C2.09748 4.48738 1.72782 4.37069 1.41464 4.18688C1.41464 4.19451 1.41464 4.20442 1.41464 4.21434C1.41464 5.43006 2.22762 6.43985 3.29371 6.67247C3.1028 6.72815 2.89473 6.75484 2.67879 6.75484C2.52864 6.75484 2.37705 6.74569 2.23477 6.71213C2.53865 7.70286 3.40096 8.43122 4.42629 8.45487C3.62833 9.12069 2.61515 9.52186 1.51832 9.52186C1.32598 9.52186 1.14151 9.51271 0.957031 9.48754C1.99595 10.2022 3.22721 10.6102 4.555 10.6102C8.87084 10.6102 11.2304 6.79679 11.2304 3.49131C11.2304 3.38072 11.2268 3.27395 11.2218 3.16794C11.6873 2.81558 12.0784 2.37551 12.3973 1.86908Z" fill="white"/>
</svg>
